<svg width="24" height="24" viewBox="0 0 24 24" fill="none" xmlns="http://www.w3.org/2000/svg">
<g id="add-new (6) 1">
<path id="Vector" d="M12 2.00012C6.5 2.00012 2 6.50012 2 12.0001C2 17.5001 6.5 22.0001 12 22.0001C17.5 22.0001 22 17.5001 22 12.0001C22 6.50012 17.5 2.00012 12 2.00012ZM16 13.0001H13V16.0001C13 16.6001 12.6 17.0001 12 17.0001C11.4 17.0001 11 16.6001 11 16.0001V13.0001H8C7.4 13.0001 7 12.6001 7 12.0001C7 11.4001 7.4 11.0001 8 11.0001H11V8.00012C11 7.40012 11.4 7.00012 12 7.00012C12.6 7.00012 13 7.40012 13 8.00012V11.0001H16C16.6 11.0001 17 11.4001 17 12.0001C17 12.6001 16.6 13.0001 16 13.0001Z" fill="white"/>
</g>
</svg>
