<svg width="15" height="17" viewBox="0 0 15 17" fill="none" xmlns="http://www.w3.org/2000/svg">
<g id="Vector">
<path id="vector-10" d="M8.30294 4.27092C8.56199 3.94771 8.50997 3.47569 8.18675 3.21665C7.86354 2.9576 7.39152 3.00962 7.13248 3.33283L8.30294 4.27092ZM1.57396 11.4675L2.14199 11.9572C2.14785 11.9504 2.15358 11.9435 2.15919 11.9365L1.57396 11.4675ZM1.39583 11.9029L0.64729 11.8541L0.646636 11.8682L1.39583 11.9029ZM1.25 15.0519L0.500803 15.0172C0.499078 15.0544 0.500133 15.0917 0.503958 15.1288L1.25 15.0519ZM2.06979 15.7675L2.09431 16.5171C2.14433 16.5155 2.19406 16.5088 2.24275 16.4973L2.06979 15.7675ZM5.19479 15.0269L5.36777 15.7568L5.37941 15.7538L5.19479 15.0269ZM5.59583 14.7727L6.17444 15.25L6.18094 15.2419L5.59583 14.7727ZM12.4726 7.39608C12.7317 7.07294 12.6798 6.60091 12.3567 6.34177C12.0336 6.08264 11.5615 6.13453 11.3024 6.45768L12.4726 7.39608ZM7.13576 3.33264C6.8766 3.65576 6.92846 4.1278 7.25159 4.38695C7.57472 4.64611 8.04675 4.59425 8.30591 4.27112L7.13576 3.33264ZM9.375 1.73938L9.96007 2.20862C9.96993 2.19633 9.9794 2.18373 9.98846 2.17084L9.375 1.73938ZM11.0719 1.40605L11.5517 0.829605C11.5278 0.809724 11.5027 0.791347 11.4765 0.774579L11.0719 1.40605ZM13.4021 3.34563L13.9329 2.81579C13.9166 2.79948 13.8996 2.78393 13.8819 2.76919L13.4021 3.34563ZM13.7531 4.20071L14.503 4.20483V4.20483L13.7531 4.20071ZM13.3927 5.05188L12.8677 4.51624C12.8465 4.53707 12.8265 4.55915 12.8078 4.58237L13.3927 5.05188ZM11.3026 6.45737C11.0433 6.78038 11.095 7.25243 11.418 7.51174C11.741 7.77104 12.2131 7.7194 12.4724 7.39639L11.3026 6.45737ZM8.46255 3.69073C8.40117 3.28109 8.01932 2.99877 7.60968 3.06016C7.20004 3.12155 6.91773 3.50339 6.97911 3.91303L8.46255 3.69073ZM11.9885 7.67005C12.3989 7.61428 12.6864 7.23634 12.6307 6.8259C12.5749 6.41546 12.197 6.12794 11.7865 6.18371L11.9885 7.67005ZM7.13248 3.33283L0.988726 10.9985L2.15919 11.9365L8.30294 4.27092L7.13248 3.33283ZM1.00593 10.9778C0.794362 11.2232 0.668508 11.5308 0.647423 11.8541L2.14424 11.9517C2.14411 11.9538 2.14332 11.9557 2.14199 11.9572L1.00593 10.9778ZM0.646636 11.8682L0.500803 15.0172L1.9992 15.0866L2.14503 11.9376L0.646636 11.8682ZM0.503958 15.1288C0.587353 15.9374 1.28192 16.5437 2.09431 16.5171L2.04527 15.0179C2.02012 15.0187 1.99862 15 1.99604 14.9749L0.503958 15.1288ZM2.24275 16.4973L5.36775 15.7567L5.02183 14.2971L1.89683 15.0377L2.24275 16.4973ZM5.37941 15.7538C5.69121 15.6746 5.96967 15.4981 6.17438 15.25L5.01728 14.2954C5.01545 14.2977 5.01296 14.2992 5.01017 14.3L5.37941 15.7538ZM6.18094 15.2419L12.4726 7.39608L11.3024 6.45768L5.01073 14.3035L6.18094 15.2419ZM8.30591 4.27112L9.96007 2.20862L8.78993 1.27014L7.13576 3.33264L8.30591 4.27112ZM9.98846 2.17084C10.1425 1.95182 10.4418 1.89303 10.6672 2.03751L11.4765 0.774579C10.5747 0.196674 9.37772 0.431814 8.76154 1.30791L9.98846 2.17084ZM10.5921 1.98249L12.9223 3.92207L13.8819 2.76919L11.5517 0.829605L10.5921 1.98249ZM12.8713 3.87547C12.9563 3.96064 13.0037 4.07625 13.0031 4.19659L14.503 4.20483C14.5059 3.6843 14.3006 3.18421 13.9329 2.81579L12.8713 3.87547ZM13.0031 4.19659C13.0024 4.31692 12.9537 4.43201 12.8677 4.51624L13.9177 5.58752C14.2894 5.22317 14.5002 4.72536 14.503 4.20483L13.0031 4.19659ZM12.8078 4.58237L11.3026 6.45737L12.4724 7.39639L13.9776 5.52139L12.8078 4.58237ZM6.97911 3.91303C7.34049 6.32455 9.57223 7.99836 11.9885 7.67005L11.7865 6.18371C10.1832 6.40156 8.70234 5.2909 8.46255 3.69073L6.97911 3.91303Z" fill="#52FF00"/>
</g>
</svg>
