<svg width="21" height="21" viewBox="0 0 21 21" fill="none" xmlns="http://www.w3.org/2000/svg">
<g id="home-svgrepo-com (5) 1">
<g id="Group">
<path id="Vector" d="M17.4823 11.3193C17.1364 11.3193 16.856 11.5997 16.856 11.9456V18.3012H4.14468V11.9456C4.14468 11.5997 3.86435 11.3193 3.51838 11.3193C3.17242 11.3193 2.89209 11.5997 2.89209 11.9456V18.9275C2.89209 19.2734 3.17242 19.5538 3.51838 19.5538H17.4823C17.8283 19.5538 18.1086 19.2734 18.1086 18.9275V11.9456C18.1086 11.5997 17.8282 11.3193 17.4823 11.3193Z" fill="white"/>
<path id="Vector_2" d="M20.8165 11.5029L10.9422 1.6297C10.6977 1.38511 10.3011 1.38519 10.0565 1.6297L0.183442 11.5029C-0.0611473 11.7475 -0.0611473 12.144 0.183442 12.3885C0.305778 12.5108 0.466109 12.572 0.626357 12.572C0.786689 12.572 0.946937 12.5109 1.06927 12.3885L10.4995 2.9582L19.9309 12.3885C20.1754 12.6331 20.572 12.633 20.8167 12.3884C21.0611 12.1439 21.0611 11.7474 20.8165 11.5029Z" fill="white"/>
</g>
</g>
</svg>
