<svg width="23" height="23" viewBox="0 0 23 23" fill="none" xmlns="http://www.w3.org/2000/svg">
<g id="password 1" opacity="0.5">
<g id="Group">
<path id="Vector" d="M15.682 8.11225V5.51348C15.682 3.45144 13.9586 1.79181 11.8443 1.79181H11.5024C9.38859 1.79181 7.66479 3.45144 7.66479 5.51348V8.02973L9.76396 8.0939V5.77381C9.76396 5.20548 9.94225 4.71279 10.2466 4.36675C10.5509 4.02071 10.9776 3.80805 11.556 3.80805H11.7907C12.3691 3.80805 12.7917 4.01932 13.0924 4.3649C13.393 4.71049 13.5686 5.20456 13.5686 5.77381V8.10582L15.682 8.11225Z" fill="#3A4747"/>
<path id="Vector_2" d="M16.1166 16.3577C16.4298 16.3565 16.7299 16.2314 16.9514 16.0099C17.1729 15.7884 17.2978 15.4884 17.2991 15.1751V9.02248C17.2978 8.70924 17.1729 8.40917 16.9514 8.18767C16.7299 7.96617 16.4298 7.84121 16.1166 7.84H7.23084C6.91759 7.84121 6.61752 7.96617 6.39602 8.18767C6.17452 8.40917 6.04955 8.70924 6.04834 9.02248V15.1747C6.04955 15.4879 6.17452 15.788 6.39602 16.0095C6.61752 16.231 6.91759 16.356 7.23084 16.3572L16.1166 16.3577Z" fill="#959B9E"/>
<path id="Vector_3" d="M11.6734 10.3975C10.8837 10.3975 10.2296 11.0346 10.2296 11.8206C10.2296 12.2542 10.4634 12.6273 10.7961 12.894V14.4739C10.7961 14.952 11.1962 15.3424 11.6734 15.3424C12.1505 15.3424 12.5506 14.952 12.5506 14.4739V12.894C12.8838 12.6273 13.1171 12.2537 13.1176 11.8206C13.1176 11.035 12.4635 10.397 11.6738 10.397L11.6734 10.3975Z" fill="#3A4747"/>
<path id="Vector_4" d="M3.46375 17.9435C3.14957 17.9448 2.84863 18.0702 2.62647 18.2924C2.40431 18.5145 2.27891 18.8155 2.27759 19.1297V20.759C2.27891 21.0732 2.40431 21.3742 2.62647 21.5963C2.84863 21.8185 3.14957 21.9438 3.46375 21.9452H19.8831C20.1973 21.9438 20.4982 21.8185 20.7204 21.5963C20.9425 21.3742 21.0679 21.0732 21.0692 20.759V19.1297C21.0679 18.8155 20.9425 18.5145 20.7204 18.2924C20.4982 18.0702 20.1973 17.9448 19.8831 17.9435H3.46375Z" fill="#E7E7E7"/>
<path id="Vector_5" fill-rule="evenodd" clip-rule="evenodd" d="M18.355 19.8135C18.2658 19.8182 18.182 19.8575 18.1212 19.923L17.4099 20.6701C17.0941 21.0028 17.5928 21.4763 17.9086 21.144L18.619 20.3969C18.8381 20.1733 18.668 19.797 18.355 19.814V19.8135Z" fill="#3A4747"/>
<path id="Vector_6" fill-rule="evenodd" clip-rule="evenodd" d="M19.2969 19.3125C19.2428 19.3134 19.1899 19.3278 19.1429 19.3547L18.246 19.8314C17.8412 20.0468 18.1644 20.654 18.5691 20.4386L19.466 19.9615C19.7915 19.7933 19.6631 19.3006 19.2969 19.3125Z" fill="#3A4747"/>
<path id="Vector_7" fill-rule="evenodd" clip-rule="evenodd" d="M18.3747 19.8126C18.3062 19.8108 18.2387 19.8295 18.1809 19.8663C18.1232 19.9032 18.0777 19.9564 18.0504 20.0193C18.0231 20.0822 18.0152 20.1517 18.0278 20.2191C18.0403 20.2865 18.0727 20.3486 18.1208 20.3974L18.8321 21.144C19.147 21.5029 19.6727 21.0024 19.3299 20.6705L18.6195 19.923C18.5881 19.8892 18.5503 19.8621 18.5083 19.8432C18.4662 19.8243 18.4208 19.8136 18.3747 19.8126Z" fill="#3A4747"/>
<path id="Vector_8" fill-rule="evenodd" clip-rule="evenodd" d="M17.4333 19.3125C17.0731 19.3125 16.9548 19.7956 17.2748 19.9615L18.1708 20.4382C18.5755 20.6536 18.8986 20.0472 18.4939 19.8314L17.5979 19.3547C17.5473 19.3269 17.4906 19.3122 17.4329 19.312L17.4333 19.3125Z" fill="#3A4747"/>
<path id="Vector_9" fill-rule="evenodd" clip-rule="evenodd" d="M18.3719 18.6337C18.2809 18.6353 18.1941 18.6728 18.1306 18.738C18.067 18.8033 18.0319 18.891 18.0327 18.982L18.0309 20.0376C18.0245 20.5023 18.7253 20.5023 18.7184 20.0376L18.7202 18.982C18.721 18.936 18.7125 18.8904 18.6953 18.8478C18.678 18.8051 18.6524 18.7663 18.6199 18.7337C18.5874 18.7012 18.5488 18.6755 18.5062 18.6581C18.4636 18.6408 18.4179 18.6322 18.3719 18.6328V18.6337ZM15.0834 19.8134C14.9942 19.8182 14.9103 19.8575 14.8496 19.923L14.1392 20.6701C13.7959 21.0024 14.3216 21.5029 14.6365 21.144L15.3469 20.3969C15.3951 20.3474 15.4272 20.2846 15.4391 20.2166C15.451 20.1486 15.4422 20.0785 15.4137 20.0156C15.3853 19.9527 15.3386 19.8998 15.2796 19.8638C15.2207 19.8279 15.1523 19.8105 15.0834 19.8139V19.8134Z" fill="#3A4747"/>
<path id="Vector_10" fill-rule="evenodd" clip-rule="evenodd" d="M16.0249 19.3125C15.9708 19.3134 15.9178 19.3278 15.8709 19.3547L14.9739 19.8314C14.5697 20.0468 14.8928 20.654 15.2971 20.4386L16.1945 19.9615C16.5199 19.7933 16.3916 19.3006 16.0249 19.3125Z" fill="#3A4747"/>
<path id="Vector_11" fill-rule="evenodd" clip-rule="evenodd" d="M15.1031 19.8126C15.0345 19.8107 14.967 19.8293 14.9091 19.8661C14.8513 19.9029 14.8058 19.9562 14.7784 20.0191C14.7511 20.082 14.7431 20.1516 14.7557 20.219C14.7682 20.2864 14.8006 20.3486 14.8487 20.3974L15.5605 21.1441C15.8749 21.5029 16.4006 21.0024 16.0583 20.6706L15.3474 19.923C15.3161 19.8893 15.2784 19.8621 15.2364 19.8432C15.1944 19.8243 15.1491 19.8136 15.1031 19.8126Z" fill="#3A4747"/>
<path id="Vector_12" fill-rule="evenodd" clip-rule="evenodd" d="M14.1613 19.3125C13.801 19.3125 13.6833 19.7956 14.0027 19.9615L14.8988 20.4382C15.3035 20.6536 15.6266 20.0472 15.2219 19.8314L14.3258 19.3547C14.2754 19.327 14.2188 19.3123 14.1613 19.312V19.3125Z" fill="#3A4747"/>
<path id="Vector_13" fill-rule="evenodd" clip-rule="evenodd" d="M15.1004 18.6337C15.0093 18.6353 14.9226 18.6728 14.8591 18.738C14.7955 18.8033 14.7604 18.891 14.7612 18.982L14.7594 20.0376C14.7525 20.5023 15.4533 20.5023 15.4469 20.0376L15.4487 18.982C15.4495 18.936 15.441 18.8904 15.4237 18.8478C15.4065 18.8051 15.3809 18.7663 15.3484 18.7337C15.3159 18.7012 15.2772 18.6755 15.2346 18.6581C15.192 18.6408 15.1464 18.6322 15.1004 18.6328V18.6337ZM11.8114 19.8134C11.7222 19.8182 11.6384 19.8575 11.5776 19.923L10.8672 20.6701C10.5244 21.0024 11.0501 21.5029 11.3645 21.144L12.0754 20.3969C12.1236 20.3474 12.1557 20.2845 12.1676 20.2164C12.1795 20.1484 12.1706 20.0783 12.1421 20.0154C12.1137 19.9525 12.0668 19.8996 12.0079 19.8637C11.9489 19.8277 11.8804 19.8104 11.8114 19.8139V19.8134Z" fill="#3A4747"/>
<path id="Vector_14" fill-rule="evenodd" clip-rule="evenodd" d="M12.7532 19.3125C12.6991 19.3134 12.6462 19.3278 12.5992 19.3547L11.7023 19.8314C11.2975 20.0468 11.6207 20.654 12.0254 20.4386L12.9223 19.9615C13.2478 19.7933 13.1194 19.3006 12.7528 19.3125H12.7532Z" fill="#3A4747"/>
<path id="Vector_15" fill-rule="evenodd" clip-rule="evenodd" d="M11.8311 19.8126C11.7626 19.8107 11.695 19.8293 11.6372 19.8661C11.5793 19.9029 11.5338 19.9562 11.5064 20.0191C11.4791 20.082 11.4712 20.1516 11.4837 20.219C11.4962 20.2864 11.5286 20.3486 11.5768 20.3974L12.2885 21.1441C12.6034 21.5029 13.1291 21.0024 12.7863 20.6706L12.0759 19.923C12.0445 19.8892 12.0067 19.8621 11.9647 19.8432C11.9226 19.8243 11.8772 19.8136 11.8311 19.8126Z" fill="#3A4747"/>
<path id="Vector_16" fill-rule="evenodd" clip-rule="evenodd" d="M10.8892 19.3125C10.529 19.3125 10.4112 19.7956 10.7311 19.9615L11.6271 20.4382C12.0318 20.6536 12.355 20.0472 11.9503 19.8314L11.0542 19.3547C11.0037 19.3269 10.9469 19.3122 10.8892 19.312V19.3125Z" fill="#3A4747"/>
<path id="Vector_17" fill-rule="evenodd" clip-rule="evenodd" d="M11.8283 18.6337C11.7372 18.6353 11.6505 18.6728 11.587 18.738C11.5234 18.8033 11.4883 18.891 11.4891 18.982L11.4873 20.0376C11.4809 20.5023 12.1812 20.5023 12.1748 20.0376L12.1766 18.982C12.1774 18.936 12.1689 18.8904 12.1516 18.8478C12.1344 18.8051 12.1088 18.7663 12.0763 18.7337C12.0438 18.7012 12.0051 18.6755 11.9625 18.6581C11.9199 18.6408 11.8743 18.6322 11.8283 18.6328V18.6337ZM8.5393 19.8134C8.45011 19.8182 8.36627 19.8575 8.30554 19.923L7.59513 20.6701C7.25229 21.0024 7.77801 21.5029 8.09288 21.144L8.80329 20.3969C8.85147 20.3474 8.8836 20.2845 8.89551 20.2164C8.90742 20.1484 8.89855 20.0783 8.87005 20.0154C8.84155 19.9525 8.79475 19.8996 8.73575 19.8637C8.67675 19.8277 8.60829 19.8104 8.5393 19.8139V19.8134Z" fill="#3A4747"/>
<path id="Vector_18" fill-rule="evenodd" clip-rule="evenodd" d="M9.48124 19.3125C9.42717 19.3134 9.37419 19.3278 9.32724 19.3547L8.43028 19.8314C8.02558 20.0468 8.3487 20.654 8.75341 20.4386L9.65037 19.9615C9.97578 19.7933 9.84745 19.3006 9.48124 19.3125Z" fill="#3A4747"/>
<path id="Vector_19" fill-rule="evenodd" clip-rule="evenodd" d="M8.55909 19.8125C8.49066 19.8109 8.42331 19.8298 8.36566 19.8667C8.30802 19.9036 8.26271 19.9569 8.23553 20.0197C8.20836 20.0825 8.20055 20.1521 8.21312 20.2193C8.22569 20.2866 8.25806 20.3486 8.30609 20.3974L9.0165 21.144C9.33138 21.5029 9.85709 21.0024 9.51425 20.6705L8.80384 19.923C8.7725 19.8892 8.73468 19.862 8.69264 19.8431C8.65059 19.8243 8.60517 19.8135 8.55909 19.8125Z" fill="#3A4747"/>
<path id="Vector_20" fill-rule="evenodd" clip-rule="evenodd" d="M7.61767 19.3125C7.25742 19.3125 7.13917 19.7956 7.45908 19.9615L8.35513 20.4382C8.75983 20.6536 9.08296 20.0472 8.67825 19.8314L7.78221 19.3547C7.73164 19.3269 7.67491 19.3122 7.61721 19.312L7.61767 19.3125Z" fill="#3A4747"/>
<path id="Vector_21" fill-rule="evenodd" clip-rule="evenodd" d="M8.55625 18.6337C8.46519 18.6353 8.37845 18.6728 8.31492 18.738C8.25139 18.8033 8.21623 18.891 8.21709 18.982L8.21525 20.0376C8.20884 20.5023 8.90963 20.5023 8.90275 20.0376L8.90459 18.982C8.90533 18.936 8.89683 18.8904 8.8796 18.8478C8.86237 18.8051 8.83674 18.7663 8.80426 18.7337C8.77178 18.7012 8.7331 18.6755 8.6905 18.6581C8.6479 18.6408 8.60224 18.6322 8.55625 18.6328V18.6337Z" fill="#3A4747"/>
</g>
</g>
</svg>
