<svg width="14" height="14" viewBox="0 0 14 14" fill="none" xmlns="http://www.w3.org/2000/svg">
<g id="person-svgrepo-com (2) 1">
<path id="Vector" d="M6.99992 7.00008C8.61075 7.00008 9.91658 5.69425 9.91658 4.08341C9.91658 2.47258 8.61075 1.16675 6.99992 1.16675C5.38909 1.16675 4.08325 2.47258 4.08325 4.08341C4.08325 5.69425 5.38909 7.00008 6.99992 7.00008Z" stroke="black"/>
<path id="Vector_2" d="M9.91671 8.16675H10.1219C11.0044 8.16675 11.7488 8.82393 11.8583 9.69969L12.0861 11.522C12.1732 12.2183 11.6302 12.8334 10.9284 12.8334H3.07162C2.36988 12.8334 1.82693 12.2183 1.91397 11.522L2.14176 9.69969C2.25123 8.82393 2.99568 8.16675 3.87825 8.16675H4.08338" stroke="black" stroke-linecap="round" stroke-linejoin="round"/>
</g>
</svg>
