<svg width="57" height="57" viewBox="0 0 57 57" fill="none" xmlns="http://www.w3.org/2000/svg">
<g id="Group">
<g id="Group_2">
<path id="Vector" d="M55.5802 45.3044C53.4859 38.5576 42.9743 39.306 38.4373 37.3685C33.9004 35.431 34.6086 28.9303 34.0334 27.7993H22.9655C22.3912 28.9303 23.0996 35.4319 18.5616 37.3685C14.0247 39.306 3.512 38.5578 1.4187 45.3044C0.26387 49.0257 0.31871 50.1638 0 54.286C0 54.286 14.4236 56.9999 28.1738 56.9999C41.9239 56.9999 57 54.286 57 54.286C56.6802 50.1628 56.735 49.0257 55.5802 45.3044Z" fill="#5C9EA0"/>
<path id="Vector_2" d="M55.5801 45.3043C53.4859 38.5576 42.9743 39.306 38.4372 37.3685C33.9004 35.431 34.6086 28.9303 34.0333 27.7993H28.1728C28.1728 27.7993 28.0378 36.9175 32.5746 38.855C37.1115 40.7925 47.6242 40.0442 49.7175 46.7908C50.8175 50.3345 50.8196 51.5357 51.093 55.2029C54.7053 54.6997 56.9981 54.2869 56.9981 54.2869C56.6801 50.1627 56.735 49.0257 55.5801 45.3043Z" fill="#44919B"/>
<path id="Vector_3" d="M9.93311 55.7674C15.1224 56.4022 21.722 56.9999 28.1737 56.9999C34.768 56.9999 41.6685 56.3752 47.0636 55.7253V51.6414C47.0636 51.6414 36.3862 53.165 28.1474 53.165C19.9087 53.165 9.93423 51.6414 9.93423 51.6414V55.7674H9.93311Z" fill="#44919B"/>
<path id="Vector_4" d="M34.2486 40.4551C36.0781 39.7751 37.5833 38.7736 38.5997 37.5583L38.6779 37.4659C38.5965 37.4337 38.5164 37.4016 38.4382 37.3685C33.9014 35.431 34.6096 28.9303 34.0343 27.7993H22.9653C22.391 28.9303 23.0994 35.4319 18.5614 37.3685C18.4833 37.4016 18.4031 37.4348 18.3218 37.4659L18.3999 37.5583C19.4165 38.7726 20.9218 39.774 22.751 40.4551C24.4843 41.0989 26.4721 41.4394 28.4998 41.4394C30.5276 41.4394 32.5153 41.0988 34.2486 40.4551Z" fill="#EAE5DC"/>
<path id="Vector_5" d="M38.4376 37.3683C37.6216 37.0199 36.9767 36.5236 36.4627 35.938C35.5116 37.074 33.8658 37.9759 31.8477 38.457C32.0757 38.6107 32.3185 38.7442 32.576 38.8537C33.4605 39.2313 34.5731 39.5076 35.8061 39.7567C36.9387 39.153 37.8887 38.4078 38.5992 37.5579L38.6773 37.4655C38.596 37.4346 38.5158 37.4016 38.4376 37.3683Z" fill="#E0DBD3"/>
<path id="Vector_6" d="M36.4622 35.9383C34.1146 33.2665 34.505 28.7266 34.0344 27.7986H22.9654C22.4936 28.7266 22.8852 33.2667 20.5376 35.9383C21.9753 37.6558 25.0007 38.839 28.4999 38.839C31.9991 38.839 35.0245 37.6558 36.4622 35.9383Z" fill="#DBB491"/>
<path id="Vector_7" d="M31.8473 38.4573C33.8657 37.9763 35.5112 37.0742 36.4623 35.9383C34.1147 33.2665 34.5051 28.7266 34.0345 27.7986H28.1738C28.1738 27.7995 28.0536 35.9101 31.8473 38.4573Z" fill="#CCA483"/>
<path id="Vector_8" d="M21.4761 34.5179C23.3128 35.9402 25.4651 37.3504 28.4884 37.7582C31.5191 37.3493 33.6661 35.91 35.5049 34.4818C33.9754 31.8061 34.4483 28.615 34.0344 27.7983H22.9654C22.5496 28.6159 23.0129 31.8411 21.4761 34.5179Z" fill="#C69E7F"/>
<g id="Group_3">
<path id="Vector_9" d="M39.3167 20.8184C38.9241 22.8958 39.5682 24.7445 40.7553 24.9476C41.9425 25.1508 43.2231 23.6314 43.6157 21.5541C44.0084 19.4767 43.3643 17.628 42.1772 17.4249C40.99 17.2217 39.7094 18.7411 39.3167 20.8184Z" fill="#CCA483"/>
<path id="Vector_10" d="M14.7895 17.4269C13.6024 17.63 12.9583 19.4787 13.3509 21.5561C13.7435 23.6334 15.0242 25.1528 16.2113 24.9496C17.3985 24.7465 18.0426 22.8978 17.6499 20.8204C17.2573 18.7431 15.9766 17.2238 14.7895 17.4269Z" fill="#DBB491"/>
<path id="Vector_11" d="M40.5495 8.46436H28.4883H16.4335C16.4335 8.46436 9.67448 34.6647 28.4883 37.2009C47.3096 34.6647 40.5495 8.46436 40.5495 8.46436Z" fill="#DBB491"/>
<path id="Vector_12" d="M28.4883 37.2009C47.3096 34.6647 40.5495 8.46436 40.5495 8.46436H37.7279C38.5005 19.4085 39.5699 25.2221 35.1333 31.5599C31.6181 36.582 28.4883 37.2009 28.4883 37.2009Z" fill="#CCA483"/>
<path id="Vector_13" d="M34.7322 9.87036L15.5088 14.8975C17.1354 15.5172 20.3118 16.6602 27.1055 16.6321C30.8867 16.616 39.2026 15.5172 41.0414 11.3077L34.7322 9.87036Z" fill="#CCA483"/>
<path id="Vector_14" d="M33.8253 0.979287C33.8253 0.979287 30.1022 -0.688012 25.0965 0.328451C21.3492 1.08973 15.2511 3.51455 13.8788 8.70837C13.8788 8.70837 11.8257 17.1937 15.3217 20.8478C15.3217 20.8478 15.1497 17.5333 15.5012 14.8947C15.5012 14.8947 19.7902 15.8942 24.7113 15.9042C29.9429 15.9142 36.9183 15.0966 41.0414 11.308C41.0414 11.308 41.66 14.9119 41.66 20.848C41.66 20.848 42.7737 19.2199 43.0102 17.0583C43.5464 12.1547 42.4941 5.27138 38.6358 5.49744C38.6346 5.49618 37.0005 2.4107 33.8253 0.979287Z" fill="#393C3D"/>
</g>
<path id="Vector_15" d="M42.2747 18.0274C37.1107 16.3058 30.0456 18.16 30.0456 18.16C29.3721 18.3176 28.9213 18.3478 28.6881 18.3498C28.687 18.3498 28.5003 18.3498 28.5003 18.3498H28.3125C28.0792 18.3478 27.6285 18.3176 26.9539 18.16C26.9539 18.16 19.8887 16.3069 14.7248 18.0274C14.7248 18.0274 14.5706 18.7185 14.7248 19.6606C14.7248 19.6606 14.7374 19.8032 14.9043 19.8634C14.9043 19.8634 15.4679 20.0321 15.6137 20.5786C15.6137 20.5786 15.9367 21.81 16.0411 22.3754C16.0411 22.3754 16.2163 23.4652 16.8444 24.0738C16.8444 24.0738 17.3922 24.7407 18.7963 25.037C18.7963 25.037 20.6225 25.484 22.8972 25.2259C22.8972 25.2259 24.5218 25.0361 25.3568 24.2899C25.3568 24.2899 26.2783 23.5386 26.7892 22.0852C26.7892 22.0852 26.9486 21.6383 27.2906 20.6679C27.2906 20.6679 27.4553 20.006 28.4982 19.9628C29.5422 20.006 29.7058 20.6679 29.7058 20.6679C30.0478 21.6383 30.2073 22.0852 30.2073 22.0852C30.7181 23.5397 31.6397 24.2899 31.6397 24.2899C32.4747 25.0361 34.0992 25.2259 34.0992 25.2259C36.3739 25.484 38.2002 25.037 38.2002 25.037C39.6031 24.7407 40.1521 24.0738 40.1521 24.0738C40.7812 23.4652 40.9553 22.3754 40.9553 22.3754C41.0597 21.8089 41.3828 20.5786 41.3828 20.5786C41.5285 20.0321 42.0921 19.8634 42.0921 19.8634C42.2589 19.8041 42.2715 19.6606 42.2715 19.6606C42.4287 18.7185 42.2747 18.0274 42.2747 18.0274ZM26.4143 20.6971C26.4143 20.6971 25.8116 23.2895 24.7992 23.9956C24.7992 23.9956 23.8196 24.764 21.9026 24.7951C21.9026 24.7951 19.0472 24.9135 17.7678 24.0066C17.7678 24.0066 16.9255 23.4382 16.6541 21.6311C16.6541 21.6311 16.292 19.5198 16.7585 18.9172C16.7585 18.9172 17.3918 17.9118 19.3078 17.9429C19.3078 17.9429 20.9397 17.9118 22.2688 18.0372C22.2688 18.0372 23.9166 18.1577 25.3808 18.6087C25.3799 18.6069 26.9738 19.0267 26.4143 20.6971ZM40.3449 21.6302C40.0736 23.4371 39.2312 24.0057 39.2312 24.0057C37.9519 24.9137 35.0965 24.7942 35.0965 24.7942C33.1795 24.7631 32.1999 23.9947 32.1999 23.9947C31.1876 23.2875 30.5848 20.6962 30.5848 20.6962C30.0253 19.0258 31.6183 18.606 31.6183 18.606C33.0824 18.155 34.7302 18.0346 34.7302 18.0346C36.0592 17.9089 37.6912 17.9402 37.6912 17.9402C39.6082 17.9091 40.2405 18.9145 40.2405 18.9145C40.707 19.518 40.3449 21.6302 40.3449 21.6302Z" fill="#3B3B3B"/>
</g>
</g>
</svg>
