<svg width="40" height="40" viewBox="0 0 40 40" fill="blue" xmlns="http://www.w3.org/2000/svg">
<g id="refresh (1) 1">
<g id="Layer 2">
<path id="refresh" d="M31.9318 22.0814C31.5687 21.9682 31.1756 22.0032 30.8381 22.1788C30.5007 22.3544 30.2463 22.6563 30.1304 23.0188C29.4496 25.1019 28.1222 26.9133 26.3416 28.1894C24.5609 29.4655 22.4198 30.1398 20.2297 30.1141C17.5209 30.1449 14.9104 29.0995 12.9706 27.2071C11.0309 25.3147 9.92027 22.7298 9.88229 20.0192C9.92027 17.3086 11.0309 14.7237 12.9706 12.8313C14.9104 10.9389 17.5209 9.89353 20.2297 9.92435C22.6762 9.91843 25.0473 10.7706 26.931 12.3327L23.8038 11.8135C23.6163 11.7827 23.4247 11.7892 23.2398 11.8327C23.0549 11.8762 22.8804 11.9559 22.7264 12.0671C22.5724 12.1784 22.4418 12.319 22.3423 12.4809C22.2428 12.6428 22.1762 12.8228 22.1464 13.0105C22.1156 13.198 22.1221 13.3898 22.1656 13.5749C22.2091 13.7599 22.2887 13.9345 22.3999 14.0886C22.5111 14.2427 22.6516 14.3733 22.8134 14.4729C22.9751 14.5725 23.155 14.6391 23.3426 14.6689L29.4531 15.6784H29.698C29.8652 15.6782 30.031 15.6489 30.188 15.5919C30.2408 15.5718 30.2896 15.5425 30.3322 15.5054C30.4355 15.4669 30.5326 15.4135 30.6204 15.3467L30.7501 15.1881C30.7501 15.116 30.8798 15.0583 30.9374 14.9718C30.9951 14.8853 30.9374 14.8276 31.0095 14.7699C31.0493 14.6859 31.083 14.5991 31.1104 14.5103L32.1912 8.7418C32.2272 8.55242 32.2255 8.35781 32.1863 8.16907C32.1471 7.98033 32.0711 7.80117 31.9627 7.64182C31.8544 7.48246 31.7157 7.34603 31.5546 7.24031C31.3935 7.13459 31.2132 7.06166 31.0239 7.02568C30.8347 6.98969 30.6402 6.99137 30.4516 7.0306C30.263 7.06983 30.0839 7.14585 29.9247 7.25432C29.603 7.47338 29.3816 7.81132 29.3089 8.1938L28.9198 10.2849C26.5073 8.1927 23.4221 7.04072 20.2297 7.0401C16.7565 7.00933 13.4129 8.35863 10.9326 10.7919C8.45235 13.2252 7.03803 16.5437 7 20.0192C7.03803 23.4948 8.45235 26.8132 10.9326 29.2465C13.4129 31.6798 16.7565 33.0291 20.2297 32.9983C23.0445 33.0416 25.7988 32.1794 28.087 30.5386C30.3753 28.8978 32.0767 26.5652 32.9406 23.8841C32.9953 23.6995 33.0125 23.5057 32.9911 23.3144C32.9697 23.123 32.9103 22.9378 32.8163 22.7698C32.7222 22.6018 32.5955 22.4543 32.4436 22.3361C32.2917 22.2179 32.1177 22.1313 31.9318 22.0814Z" fill="blue"/>
</g>
</g>
</svg>
