<svg width="22" height="22" viewBox="0 0 22 22" fill="none" xmlns="http://www.w3.org/2000/svg">
<g id="report-svgrepo-com 1">
<g id="Group">
<g id="Group_2">
<g id="Group_3">
<path id="Vector" d="M18.2993 1.60292H14.2467V0.429688C14.2467 0.19241 14.0543 0 13.817 0H8.18251C7.94524 0 7.75283 0.19241 7.75283 0.429688V1.60292H3.7002C3.46292 1.60292 3.27051 1.79532 3.27051 2.0326V21.5703C3.27051 21.8076 3.46292 22 3.7002 22H18.2993C18.5366 22 18.729 21.8076 18.729 21.5703V2.0326C18.729 1.79528 18.5366 1.60292 18.2993 1.60292ZM8.6122 0.859375H13.3873V3.33569H8.6122V0.859375ZM17.8697 21.1406H4.12988V2.46229H7.75283V3.76542C7.75283 4.0027 7.94524 4.19511 8.18251 4.19511H13.817C14.0543 4.19511 14.2467 4.0027 14.2467 3.76542V2.46229H17.8697V21.1406Z" fill="white"/>
<path id="Vector_2" d="M5.95312 6.40442H12.5812C12.8185 6.40442 13.0109 6.21201 13.0109 5.97473C13.0109 5.73745 12.8185 5.54504 12.5812 5.54504H5.95312C5.71585 5.54504 5.52344 5.73745 5.52344 5.97473C5.52344 6.21201 5.71585 6.40442 5.95312 6.40442Z" fill="white"/>
<path id="Vector_3" d="M16.1769 7.75439H5.95313C5.71585 7.75439 5.52344 7.9468 5.52344 8.18408C5.52344 8.42136 5.71585 8.61377 5.95313 8.61377H16.1769C16.4142 8.61377 16.6066 8.42136 16.6066 8.18408C16.6066 7.9468 16.4142 7.75439 16.1769 7.75439Z" fill="white"/>
<path id="Vector_4" d="M16.1769 9.96387H5.95313C5.71585 9.96387 5.52344 10.1563 5.52344 10.3936C5.52344 10.6308 5.71585 10.8232 5.95313 10.8232H16.1769C16.4142 10.8232 16.6066 10.6308 16.6066 10.3936C16.6066 10.1563 16.4142 9.96387 16.1769 9.96387Z" fill="white"/>
<path id="Vector_5" d="M16.1769 12.0432H5.95313C5.71585 12.0432 5.52344 12.2356 5.52344 12.4729C5.52344 12.7102 5.71585 12.9026 5.95313 12.9026H16.1769C16.4142 12.9026 16.6066 12.7102 16.6066 12.4729C16.6066 12.2356 16.4142 12.0432 16.1769 12.0432Z" fill="white"/>
<path id="Vector_6" d="M14.7471 6.40442H16.1767C16.4139 6.40442 16.6064 6.21201 16.6064 5.97473C16.6064 5.73745 16.4139 5.54504 16.1767 5.54504H14.7471C14.5098 5.54504 14.3174 5.73745 14.3174 5.97473C14.3174 6.21201 14.5098 6.40442 14.7471 6.40442Z" fill="white"/>
<path id="Vector_7" d="M11.8336 16.908C11.8336 16.7933 11.7877 16.6833 11.7061 16.6026L10.0675 14.9807C9.90526 14.8201 9.6455 14.8144 9.47643 14.968C8.90897 15.4833 8.5835 16.216 8.5835 16.9783C8.5835 17.7072 8.87003 18.3922 9.39031 18.9072C9.47404 18.99 9.58331 19.0315 9.69259 19.0315C9.80186 19.0315 9.91114 18.9901 9.99486 18.9072L11.7061 17.2134C11.7877 17.1326 11.8336 17.0227 11.8336 16.908ZM9.72683 17.9633C9.54188 17.6705 9.44292 17.3319 9.44292 16.9783C9.44292 16.5941 9.56436 16.2206 9.78422 15.9094L10.7931 16.908L9.72683 17.9633Z" fill="white"/>
<path id="Vector_8" d="M15.4529 15.0494V15.0494L15.4529 15.0493C14.9337 14.5355 14.2439 14.2526 13.5104 14.2526C12.8214 14.2526 12.162 14.5067 11.654 14.9681C11.5666 15.0473 11.5158 15.159 11.5132 15.2769C11.5107 15.3949 11.5567 15.5086 11.6406 15.5916L12.9706 16.908L11.5678 18.2964C11.4863 18.3771 11.4404 18.4871 11.4404 18.6018C11.4404 18.7165 11.4863 18.8265 11.5678 18.9072C12.087 19.421 12.7768 19.704 13.5104 19.704C15.0264 19.704 16.2598 18.4812 16.2598 16.9783C16.2597 16.2494 15.9732 15.5644 15.4529 15.0494ZM12.6068 15.3389C12.8817 15.1909 13.1913 15.112 13.5103 15.112C13.867 15.112 14.2086 15.2089 14.5042 15.39L13.5814 16.3034L12.6068 15.3389ZM13.5103 18.8446C13.1536 18.8446 12.8121 18.7477 12.5165 18.5666L14.2177 16.8827L15.1164 15.9932C15.3014 16.286 15.4003 16.6247 15.4003 16.9783C15.4003 18.0074 14.5525 18.8446 13.5103 18.8446Z" fill="white"/>
<path id="Vector_9" d="M11.2148 1.54688H9.75391C9.51663 1.54688 9.32422 1.73928 9.32422 1.97656C9.32422 2.21384 9.51663 2.40625 9.75391 2.40625H11.2148C11.4521 2.40625 11.6445 2.21384 11.6445 1.97656C11.6445 1.73928 11.4521 1.54688 11.2148 1.54688Z" fill="white"/>
</g>
</g>
</g>
</g>
</svg>
