<svg width="29" height="29" viewBox="0 0 29 29" fill="none" xmlns="http://www.w3.org/2000/svg">
<path d="M20.5417 18.1667H19.2908L18.8475 17.7392C20.4528 15.8772 21.3351 13.5001 21.3333 11.0417C21.3333 9.00617 20.7297 7.01638 19.5989 5.32393C18.468 3.63147 16.8607 2.31236 14.9801 1.53341C13.0996 0.754459 11.0303 0.55065 9.03387 0.947756C7.03748 1.34486 5.20368 2.32505 3.76436 3.76436C2.32505 5.20368 1.34486 7.03748 0.947756 9.03387C0.55065 11.0303 0.754459 13.0996 1.53341 14.9801C2.31236 16.8607 3.63147 18.468 5.32393 19.5989C7.01638 20.7297 9.00617 21.3333 11.0417 21.3333C13.5908 21.3333 15.9342 20.3992 17.7392 18.8475L18.1667 19.2908V20.5417L26.0833 28.4425L28.4425 26.0833L20.5417 18.1667ZM11.0417 18.1667C7.09917 18.1667 3.91667 14.9842 3.91667 11.0417C3.91667 7.09917 7.09917 3.91667 11.0417 3.91667C14.9842 3.91667 18.1667 7.09917 18.1667 11.0417C18.1667 14.9842 14.9842 18.1667 11.0417 18.1667Z" fill="black" fill-opacity="0.25"/>
</svg>
