<svg width="30" height="24" viewBox="0 0 30 24" fill="none" xmlns="http://www.w3.org/2000/svg">
<g id="actions-settings-desktop-jld6gct-svgrepo-com 1">
<g id="ic-actions-settings">
<path id="Vector" fill-rule="evenodd" clip-rule="evenodd" d="M12.9211 3.38599L13.0293 3.17069C13.2198 2.79159 13.5509 2.46939 13.9774 2.24831C14.4038 2.02723 14.9046 1.91812 15.4109 1.93597C15.9172 1.95381 16.4043 2.09773 16.8052 2.34797C17.2062 2.59821 17.5013 2.94249 17.6501 3.33354L17.7347 3.55563C17.8355 3.82061 18.0041 4.06557 18.2296 4.27466C18.4551 4.48375 18.7324 4.65232 19.0437 4.76947C19.3549 4.88663 19.6931 4.94975 20.0365 4.95478C20.3799 4.9598 20.7207 4.9066 21.037 4.79863L21.3022 4.70814C21.7689 4.54879 22.2854 4.50999 22.7806 4.59705C23.2758 4.68411 23.7255 4.89278 24.0679 5.19439C24.4103 5.496 24.6286 5.87577 24.6929 6.28155C24.7572 6.68733 24.6643 7.09923 24.427 7.46069L24.2922 7.66597C24.1313 7.91089 24.036 8.18033 24.0123 8.45686C23.9885 8.73339 24.037 9.01086 24.1544 9.27134C24.2719 9.53182 24.4557 9.7695 24.6941 9.96903C24.9325 10.1686 25.2201 10.3255 25.5383 10.4297L25.8051 10.517C26.2747 10.6707 26.6739 10.9381 26.9478 11.2823C27.2217 11.6265 27.3568 12.0307 27.3347 12.4394C27.3126 12.8481 27.1343 13.2412 26.8243 13.5649C26.5143 13.8885 26.0878 14.1267 25.6033 14.2468L25.3282 14.3151C24.9999 14.3965 24.6964 14.5326 24.4374 14.7146C24.1783 14.8966 23.9695 15.1204 23.8243 15.3717C23.6792 15.6229 23.601 15.8959 23.5948 16.1731C23.5886 16.4502 23.6545 16.7253 23.7882 16.9807L23.9003 17.1947C24.0977 17.5714 24.1458 17.9883 24.038 18.388C23.9301 18.7877 23.6716 19.1507 23.2979 19.4271C22.9243 19.7035 22.4538 19.8797 21.951 19.9316C21.4483 19.9835 20.938 19.9085 20.4902 19.7169L20.2359 19.6081C19.9325 19.4783 19.5987 19.4013 19.2561 19.3822C18.9135 19.363 18.5697 19.4021 18.247 19.4969C17.9243 19.5917 17.6299 19.7401 17.3827 19.9326C17.1355 20.125 16.9411 20.3571 16.812 20.614L16.7038 20.8293C16.5133 21.2084 16.1821 21.5306 15.7557 21.7517C15.3293 21.9727 14.8285 22.0819 14.3222 22.064C13.8158 22.0462 13.3288 21.9022 12.9278 21.652C12.5269 21.4018 12.2317 21.0575 12.0829 20.6664L11.9984 20.4443C11.8976 20.1794 11.729 19.9344 11.5035 19.7253C11.278 19.5162 11.0007 19.3477 10.6894 19.2305C10.3782 19.1134 10.0399 19.0502 9.69656 19.0452C9.3532 19.0402 9.01234 19.0934 8.69604 19.2013L8.43092 19.2918C7.96413 19.4512 7.44768 19.49 6.95248 19.4029C6.45727 19.3159 6.0076 19.1072 5.6652 18.8056C5.3228 18.504 5.10446 18.1242 5.04017 17.7184C4.97587 17.3126 5.06878 16.9007 5.30612 16.5393L5.44092 16.334C5.60173 16.0891 5.69709 15.8197 5.72081 15.5431C5.74454 15.2666 5.69611 14.9891 5.57866 14.7286C5.46121 14.4682 5.27735 14.2305 5.03897 14.0309C4.80058 13.8314 4.51298 13.6745 4.19475 13.5703L3.92801 13.483C3.45836 13.3292 3.05918 13.0619 2.78529 12.7177C2.5114 12.3735 2.37623 11.9693 2.39833 11.5606C2.42044 11.1519 2.59874 10.7587 2.90876 10.4351C3.21877 10.1115 3.6453 9.87325 4.12977 9.75313L4.40491 9.6849C4.7332 9.6035 5.03667 9.46741 5.29571 9.28541C5.55475 9.10341 5.76359 8.87956 5.90873 8.62833C6.05387 8.3771 6.13208 8.10408 6.1383 7.82692C6.14452 7.54976 6.07862 7.27463 5.94485 7.01932L5.83274 6.80532C5.63536 6.42855 5.5873 6.0117 5.69516 5.612C5.80303 5.21229 6.06153 4.84934 6.43517 4.57297C6.80882 4.29661 7.27929 4.12037 7.78199 4.06846C8.28469 4.01656 8.79497 4.09153 9.24277 4.28308L9.49709 4.39189C9.80053 4.5217 10.1343 4.59868 10.4769 4.61783C10.8195 4.63699 11.1633 4.5979 11.486 4.50309C11.8087 4.40829 12.1032 4.25987 12.3504 4.06745C12.5976 3.87502 12.792 3.64287 12.9211 3.38599V3.38599Z" stroke="white" stroke-width="1.5" stroke-linecap="round" stroke-linejoin="bevel"/>
<path id="Vector_2" d="M14.8665 15.9095C17.5415 15.9095 19.71 14.1591 19.71 11.9999C19.71 9.84071 17.5415 8.09033 14.8665 8.09033C12.1915 8.09033 10.0229 9.84071 10.0229 11.9999C10.0229 14.1591 12.1915 15.9095 14.8665 15.9095Z" stroke="white" stroke-width="1.5" stroke-linecap="round" stroke-linejoin="bevel"/>
</g>
</g>
</svg>
