<svg width="24" height="24" viewBox="0 0 24 24" fill="none" xmlns="http://www.w3.org/2000/svg">
<g id="user-access-svgrepo-com 1" clip-path="url(#clip0_2638_19)">
<path id="Vector" d="M12 22.5H10.5V18.75C10.4993 18.1535 10.2621 17.5815 9.84027 17.1597C9.41845 16.7379 8.84654 16.5007 8.25 16.5H5.25C4.65346 16.5007 4.08155 16.7379 3.65973 17.1597C3.23792 17.5815 3.00066 18.1535 3 18.75V22.5H1.5V18.75C1.50117 17.7558 1.89664 16.8027 2.59964 16.0996C3.30265 15.3966 4.2558 15.0012 5.25 15H8.25C9.2442 15.0012 10.1973 15.3966 10.9004 16.0996C11.6034 16.8027 11.9988 17.7558 12 18.75V22.5Z" fill="white"/>
<path id="Vector_2" d="M6.75 7.5C7.19501 7.5 7.63002 7.63196 8.00003 7.87919C8.37005 8.12643 8.65843 8.47783 8.82873 8.88896C8.99903 9.3001 9.04359 9.7525 8.95677 10.189C8.86995 10.6254 8.65566 11.0263 8.34099 11.341C8.02632 11.6557 7.62541 11.87 7.18895 11.9568C6.7525 12.0436 6.3001 11.999 5.88896 11.8287C5.47783 11.6584 5.12643 11.37 4.8792 11C4.63196 10.63 4.5 10.195 4.5 9.75C4.5 9.15326 4.73705 8.58097 5.15901 8.15901C5.58097 7.73705 6.15326 7.5 6.75 7.5ZM6.75 6C6.00832 6 5.2833 6.21993 4.66661 6.63199C4.04993 7.04404 3.56928 7.62971 3.28545 8.31494C3.00162 9.00016 2.92736 9.75416 3.07206 10.4816C3.21675 11.209 3.5739 11.8772 4.09835 12.4017C4.6228 12.9261 5.29098 13.2833 6.01841 13.4279C6.74584 13.5726 7.49984 13.4984 8.18506 13.2145C8.87029 12.9307 9.45596 12.4501 9.86801 11.8334C10.2801 11.2167 10.5 10.4917 10.5 9.75C10.5 9.25754 10.403 8.76991 10.2146 8.31494C10.0261 7.85997 9.74987 7.44657 9.40165 7.09835C9.05343 6.75013 8.64004 6.47391 8.18506 6.28545C7.73009 6.097 7.24246 6 6.75 6Z" fill="white"/>
<path id="Vector_3" d="M22.4999 9.00011C22.3701 9.00191 22.2411 9.02062 22.1161 9.05576L21.3247 8.26436C21.6028 7.80822 21.7499 7.28433 21.7499 6.75011C21.7499 6.2159 21.6028 5.692 21.3247 5.23586L22.1161 4.44446C22.4408 4.53483 22.7863 4.51511 23.0986 4.38838C23.411 4.26165 23.6725 4.03505 23.8425 3.74396C24.0124 3.45288 24.0811 3.11371 24.0379 2.77943C23.9948 2.44515 23.8421 2.13459 23.6037 1.89625C23.3654 1.65792 23.0548 1.50523 22.7206 1.46204C22.3863 1.41885 22.0471 1.48759 21.756 1.65753C21.4649 1.82746 21.2383 2.08902 21.1116 2.40134C20.9849 2.71367 20.9651 3.05917 21.0555 3.38389L20.2641 4.17529C19.808 3.89722 19.2841 3.75012 18.7499 3.75012C18.2157 3.75012 17.6918 3.89722 17.2356 4.17529L16.4442 3.38389C16.5346 3.05917 16.5149 2.71367 16.3881 2.40134C16.2614 2.08902 16.0348 1.82746 15.7437 1.65753C15.4526 1.48759 15.1135 1.41885 14.7792 1.46204C14.4449 1.50523 14.1343 1.65792 13.896 1.89625C13.6577 2.13459 13.505 2.44515 13.4618 2.77943C13.4186 3.11371 13.4873 3.45288 13.6573 3.74396C13.8272 4.03505 14.0888 4.26165 14.4011 4.38838C14.7134 4.51511 15.0589 4.53483 15.3836 4.44446L16.175 5.23586C15.897 5.692 15.7499 6.2159 15.7499 6.75011C15.7499 7.28433 15.897 7.80822 16.175 8.26436L15.3836 9.05576C15.0589 8.96539 14.7134 8.98511 14.4011 9.11184C14.0888 9.23857 13.8272 9.46518 13.6573 9.75626C13.4873 10.0473 13.4186 10.3865 13.4618 10.7208C13.505 11.0551 13.6577 11.3656 13.896 11.604C14.1343 11.8423 14.4449 11.995 14.7792 12.0382C15.1135 12.0814 15.4526 12.0126 15.7437 11.8427C16.0348 11.6728 16.2614 11.4112 16.3881 11.0989C16.5149 10.7866 16.5346 10.4411 16.4442 10.1163L17.2356 9.32494C17.6918 9.60301 18.2157 9.75011 18.7499 9.75011C19.2841 9.75011 19.808 9.60301 20.2641 9.32494L21.0555 10.1163C20.976 10.4186 20.9932 10.7382 21.1046 11.0303C21.216 11.3224 21.416 11.5722 21.6766 11.7448C21.9373 11.9174 22.2454 12.0041 22.5577 11.9927C22.8701 11.9813 23.1711 11.8723 23.4184 11.6812C23.6657 11.4901 23.847 11.2263 23.9368 10.9269C24.0266 10.6275 24.0204 10.3075 23.9191 10.0118C23.8178 9.71608 23.6264 9.45951 23.3719 9.27807C23.1174 9.09663 22.8124 8.99944 22.4999 9.00011ZM17.2499 6.75011C17.2499 6.45344 17.3378 6.16343 17.5027 5.91676C17.6675 5.67008 17.9018 5.47782 18.1758 5.36429C18.4499 5.25076 18.7515 5.22106 19.0425 5.27893C19.3335 5.33681 19.6007 5.47967 19.8105 5.68945C20.0203 5.89923 20.1632 6.16651 20.221 6.45748C20.2789 6.74845 20.2492 7.05005 20.1357 7.32414C20.0222 7.59823 19.8299 7.83249 19.5832 7.99732C19.3366 8.16214 19.0465 8.25011 18.7499 8.25011C18.3522 8.24962 17.971 8.09142 17.6898 7.81022C17.4086 7.52903 17.2504 7.14778 17.2499 6.75011Z" fill="white"/>
</g>
<defs>
<clipPath id="clip0_2638_19">
<rect width="24" height="24" fill="white"/>
</clipPath>
</defs>
</svg>
